<svg width="48" height="48" viewBox="0 0 48 48" fill="none" xmlns="http://www.w3.org/2000/svg">
<path fill-rule="evenodd" clip-rule="evenodd" d="M36 24C36 23.6022 35.842 23.2206 35.5607 22.9393C35.2794 22.658 34.8978 22.5 34.5 22.5H17.121L23.562 16.062C23.7015 15.9225 23.8121 15.757 23.8876 15.5747C23.963 15.3925 24.0019 15.1972 24.0019 15C24.0019 14.8028 23.963 14.6075 23.8876 14.4252C23.8121 14.243 23.7015 14.0775 23.562 13.938C23.4225 13.7985 23.257 13.6879 23.0747 13.6124C22.8925 13.5369 22.6972 13.4981 22.5 13.4981C22.3028 13.4981 22.1075 13.5369 21.9252 13.6124C21.743 13.6879 21.5775 13.7985 21.438 13.938L12.438 22.938C12.2983 23.0773 12.1875 23.2429 12.1119 23.4251C12.0362 23.6073 11.9973 23.8027 11.9973 24C11.9973 24.1973 12.0362 24.3927 12.1119 24.5749C12.1875 24.7571 12.2983 24.9227 12.438 25.062L21.438 34.062C21.7197 34.3437 22.1017 34.5019 22.5 34.5019C22.8983 34.5019 23.2803 34.3437 23.562 34.062C23.8437 33.7803 24.0019 33.3983 24.0019 33C24.0019 32.6017 23.8437 32.2197 23.562 31.938L17.121 25.5H34.5C34.8978 25.5 35.2794 25.342 35.5607 25.0607C35.842 24.7794 36 24.3978 36 24Z" fill="#00C09F"/>
</svg>
