<svg width="14" height="14" viewBox="0 0 14 14" fill="none" xmlns="http://www.w3.org/2000/svg">
<path d="M2.625 8.3125C2.2769 8.3125 1.94306 8.17422 1.69692 7.92808C1.45078 7.68194 1.3125 7.3481 1.3125 7C1.3125 6.6519 1.45078 6.31806 1.69692 6.07192C1.94306 5.82578 2.2769 5.6875 2.625 5.6875C2.9731 5.6875 3.30694 5.82578 3.55308 6.07192C3.79922 6.31806 3.9375 6.6519 3.9375 7C3.9375 7.3481 3.79922 7.68194 3.55308 7.92808C3.30694 8.17422 2.9731 8.3125 2.625 8.3125ZM7 8.3125C6.6519 8.3125 6.31806 8.17422 6.07192 7.92808C5.82578 7.68194 5.6875 7.3481 5.6875 7C5.6875 6.6519 5.82578 6.31806 6.07192 6.07192C6.31806 5.82578 6.6519 5.6875 7 5.6875C7.3481 5.6875 7.68194 5.82578 7.92808 6.07192C8.17422 6.31806 8.3125 6.6519 8.3125 7C8.3125 7.3481 8.17422 7.68194 7.92808 7.92808C7.68194 8.17422 7.3481 8.3125 7 8.3125ZM11.375 8.3125C11.0269 8.3125 10.6931 8.17422 10.4469 7.92808C10.2008 7.68194 10.0625 7.3481 10.0625 7C10.0625 6.6519 10.2008 6.31806 10.4469 6.07192C10.6931 5.82578 11.0269 5.6875 11.375 5.6875C11.7231 5.6875 12.0569 5.82578 12.3031 6.07192C12.5492 6.31806 12.6875 6.6519 12.6875 7C12.6875 7.3481 12.5492 7.68194 12.3031 7.92808C12.0569 8.17422 11.7231 8.3125 11.375 8.3125Z" fill="#6A6A6A"/>
</svg>
