 <svg width="20" height="20" viewBox="0 0 20 20" fill="none" xmlns="http://www.w3.org/2000/svg">
<g clip-path="url(#clip0_491_1058)">
<path d="M1.875 2.5C1.37772 2.5 0.900805 2.69754 0.549175 3.04917C0.197544 3.40081 0 3.87772 0 4.375L0 6.875H7.5C7.66576 6.875 7.82473 6.94085 7.94194 7.05806C8.05915 7.17527 8.125 7.33424 8.125 7.5C8.125 7.81625 8.225 8.305 8.5075 8.6975C8.76625 9.0575 9.20375 9.375 10 9.375C10.7963 9.375 11.2338 9.0575 11.4925 8.6975C11.775 8.305 11.875 7.81625 11.875 7.5C11.875 7.33424 11.9408 7.17527 12.0581 7.05806C12.1753 6.94085 12.3342 6.875 12.5 6.875H20V4.375C20 3.87772 19.8025 3.40081 19.4508 3.04917C19.0992 2.69754 18.6223 2.5 18.125 2.5H1.875Z" fill="#4F8CE2"/>
<path d="M20 8.125H13.0613C12.9716 8.59367 12.7828 9.03776 12.5075 9.4275C12.0162 10.11 11.2037 10.625 10 10.625C8.79625 10.625 7.98375 10.11 7.4925 9.4275C7.21723 9.03774 7.02843 8.59366 6.93875 8.125H0V15.625C0 16.1223 0.197544 16.5992 0.549175 16.9508C0.900805 17.3025 1.37772 17.5 1.875 17.5H18.125C18.6223 17.5 19.0992 17.3025 19.4508 16.9508C19.8025 16.5992 20 16.1223 20 15.625V8.125Z" fill="#4F8CE2"/>
</g>
<defs>
<clipPath id="clip0_491_1058">
<rect width="20" height="20" fill="white"/>
</clipPath>
</defs>
</svg>
