<svg width="36" height="36" viewBox="0 0 36 36" fill="none" xmlns="http://www.w3.org/2000/svg">
<path fill-rule="evenodd" clip-rule="evenodd" d="M27.0001 18C27.0001 17.7016 26.8815 17.4155 26.6706 17.2045C26.4596 16.9935 26.1734 16.875 25.8751 16.875H12.8408L17.6716 12.0465C17.7762 11.9419 17.8591 11.8177 17.9157 11.6811C17.9723 11.5444 18.0015 11.3979 18.0015 11.25C18.0015 11.1021 17.9723 10.9556 17.9157 10.8189C17.8591 10.6823 17.7762 10.5581 17.6716 10.4535C17.567 10.3489 17.4428 10.2659 17.3061 10.2093C17.1695 10.1527 17.023 10.1236 16.8751 10.1236C16.7271 10.1236 16.5807 10.1527 16.444 10.2093C16.3073 10.2659 16.1832 10.3489 16.0786 10.4535L9.32856 17.2035C9.22379 17.308 9.14067 17.4321 9.08395 17.5688C9.02724 17.7055 8.99805 17.852 8.99805 18C8.99805 18.148 9.02724 18.2945 9.08395 18.4312C9.14067 18.5679 9.22379 18.692 9.32856 18.7965L16.0786 25.5465C16.2898 25.7577 16.5763 25.8764 16.8751 25.8764C17.1738 25.8764 17.4603 25.7577 17.6716 25.5465C17.8828 25.3353 18.0015 25.0487 18.0015 24.75C18.0015 24.4513 17.8828 24.1647 17.6716 23.9535L12.8408 19.125H25.8751C26.1734 19.125 26.4596 19.0065 26.6706 18.7955C26.8815 18.5845 27.0001 18.2984 27.0001 18Z" fill="white"/>
</svg>
