<svg width="76" height="76" viewBox="0 0 76 76" fill="none" xmlns="http://www.w3.org/2000/svg">
<path d="M62.3959 37.4679L56.5067 43.3511L40.6741 59.1686L39.9948 59.8473C38.8927 60.9482 37.398 61.5667 35.8395 61.5667C34.281 61.5667 32.7863 60.9482 31.6843 59.8473L31.004 59.1677L13.6495 41.8307C13.1035 41.2859 12.6703 40.6389 12.3747 39.9267C12.0791 39.2145 11.927 38.4511 11.927 37.6801C11.927 36.9091 12.0791 36.1457 12.3747 35.4335C12.6703 34.7213 13.1035 34.0743 13.6495 33.5295L14.8611 32.3236L36.0515 11.15C37.1536 10.0491 38.6483 9.43066 40.2068 9.43066C41.7653 9.43066 43.26 10.0491 44.3621 11.15L52.4308 19.2107L62.3959 29.1693C63.4968 30.2701 64.1152 31.7625 64.1152 33.3186C64.1152 34.8746 63.4968 36.3671 62.3959 37.4679Z" fill="white"/>
<path d="M59.341 45.593C59.2563 45.6831 59.1688 45.7813 59.0769 45.8732L43.2563 61.6879C41.9749 62.9685 40.237 63.688 38.425 63.688C36.6129 63.688 34.875 62.9685 33.5936 61.6879L11.2826 39.3865C11.2285 39.3324 11.1744 39.2765 11.1221 39.2207L11.0401 39.1306C10.9968 39.0828 10.9544 39.0341 10.913 38.9855C10.8715 38.9368 10.8463 38.9071 10.8138 38.8665C10.7814 38.826 10.7453 38.7827 10.712 38.7395L10.6966 38.7188C10.6642 38.6782 10.6335 38.6359 10.6065 38.5944C10.5794 38.553 10.5479 38.5142 10.5163 38.4746C10.5073 38.4629 10.4992 38.4503 10.4911 38.4385C10.4704 38.4079 10.4487 38.3773 10.4289 38.3484C10.373 38.2655 10.3189 38.1808 10.2675 38.0952C10.2504 38.0682 10.2342 38.0403 10.218 38.0123C10.1134 37.8321 10.0169 37.6519 9.93039 37.4672C9.91416 37.4336 9.89884 37.4002 9.88441 37.3672C9.87795 37.3543 9.87223 37.3411 9.86729 37.3275C9.30807 36.066 9.14406 34.6648 9.39684 33.3083C9.64963 31.9518 10.3074 30.7036 11.2835 29.7279L27.0806 13.9349C27.9921 13.0229 29.1432 12.3873 30.4009 12.1017C31.6586 11.8161 32.9714 11.8922 34.1877 12.3211C34.2331 12.3367 34.2738 12.3636 34.306 12.3993C34.3381 12.435 34.3607 12.4782 34.3715 12.525C34.3823 12.5718 34.381 12.6205 34.3678 12.6667C34.3546 12.7128 34.3298 12.7548 34.2958 12.7888L16.465 30.6128C15.6326 31.4441 15.0292 32.4764 14.7133 33.6094C14.3974 34.7425 14.3798 35.9379 14.6621 37.0797C14.739 37.3937 14.8385 37.7018 14.9596 38.0015C15.3033 38.852 15.8154 39.6244 16.465 40.2722L26.4622 50.265L35.3325 59.1315C35.4695 59.2685 35.612 59.4018 35.758 59.5217C37.0667 60.6255 38.7423 61.198 40.4531 61.1257C42.1639 61.0534 43.7853 60.3418 44.9961 59.1315L58.9272 45.2101C59.1833 44.9523 59.5817 45.3209 59.341 45.593Z" fill="#00C09F"/>
<path d="M59.1111 36.2316L35.7986 59.5469L33.6336 61.712L11.3071 39.3846C11.2529 39.3304 11.1988 39.2745 11.1465 39.2186L11.0644 39.1284C11.0211 39.0805 10.9787 39.0318 10.9372 38.9831C10.8957 38.9344 10.8705 38.9046 10.838 38.864C10.8055 38.8234 10.7694 38.7801 10.736 38.7368L10.7207 38.7161C10.6882 38.6755 10.6576 38.6331 10.6305 38.5916C10.6034 38.5501 10.5719 38.5113 10.5403 38.4716C10.5313 38.4599 10.5232 38.4473 10.515 38.4355C10.4943 38.4049 10.4726 38.3742 10.4528 38.3453C10.3969 38.2623 10.3427 38.1775 10.2913 38.0918C10.2742 38.0648 10.2579 38.0368 10.2417 38.0088C10.1371 37.8284 10.0405 37.648 9.95394 37.463C9.9377 37.4294 9.92237 37.396 9.90793 37.3629L9.88989 37.3232C10.953 37.7357 12.1131 37.83 13.2288 37.5947C14.3446 37.3594 15.3678 36.8046 16.1738 35.998L17.4908 34.8424L36.4192 18.164L48.7778 27.9971L59.1111 36.2316Z" fill="#88F1C6"/>
<path d="M64.9994 39.9692L59.1102 45.8524L43.2776 61.67L42.5983 62.3486C41.4963 63.4495 40.0016 64.068 38.443 64.068C36.8845 64.068 35.3898 63.4495 34.2878 62.3486L33.6076 61.6691L16.2531 44.3321C15.707 43.7873 15.2738 43.1402 14.9782 42.428C14.6827 41.7158 14.5305 40.9524 14.5305 40.1814C14.5305 39.4105 14.6827 38.647 14.9782 37.9348C15.2738 37.2226 15.707 36.5756 16.2531 36.0308L17.4646 34.825L38.655 13.6514C39.7571 12.5505 41.2518 11.932 42.8103 11.932C44.3688 11.932 45.8635 12.5505 46.9656 13.6514L55.0343 21.712L64.9994 31.6706C66.1003 32.7714 66.7187 34.2639 66.7187 35.8199C66.7187 37.376 66.1003 38.8684 64.9994 39.9692Z" fill="#88F1C6"/>
<path d="M38.0531 28.5916L31.1551 35.4827C30.2785 36.3584 30.2785 37.7782 31.1551 38.6539L38.0531 45.545C38.9296 46.4207 40.3509 46.4207 41.2274 45.545L48.1255 38.6539C49.002 37.7782 49.002 36.3584 48.1255 35.4827L41.2274 28.5916C40.3509 27.7159 38.9296 27.7159 38.0531 28.5916Z" fill="#00C09F"/>
<path opacity="0.2" d="M65.0003 39.9829L59.1141 45.8628L43.2896 61.6714L42.6106 62.3496C41.5091 63.4499 40.0152 64.068 38.4575 64.068C36.8998 64.068 35.4058 63.4499 34.3043 62.3496L33.6245 61.6705L24.3444 52.4002L26.4913 50.2547L55.0403 21.736L65.0003 31.689C66.1006 32.7892 66.7187 34.2808 66.7187 35.8359C66.7187 37.3911 66.1006 38.8827 65.0003 39.9829Z" fill="#00C09F"/>
</svg>
