<svg width="20" height="20" viewBox="0 0 20 20" fill="none" xmlns="http://www.w3.org/2000/svg">
<path d="M2.5 1.25C2.16848 1.25 1.85054 1.3817 1.61612 1.61612C1.3817 1.85054 1.25 2.16848 1.25 2.5V8.2325C1.25007 8.56399 1.38181 8.88188 1.61625 9.11625L10.3663 17.8663C10.6007 18.1006 10.9185 18.2322 11.25 18.2322C11.5815 18.2322 11.8993 18.1006 12.1337 17.8663L17.8663 12.1337C18.1006 11.8993 18.2322 11.5815 18.2322 11.25C18.2322 10.9185 18.1006 10.6007 17.8663 10.3663L9.11625 1.61625C8.88188 1.38181 8.56399 1.25007 8.2325 1.25H2.5ZM7.5 5.625C7.5 6.12228 7.30246 6.59919 6.95083 6.95083C6.59919 7.30246 6.12228 7.5 5.625 7.5C5.12772 7.5 4.65081 7.30246 4.29917 6.95083C3.94754 6.59919 3.75 6.12228 3.75 5.625C3.75 5.12772 3.94754 4.65081 4.29917 4.29917C4.65081 3.94754 5.12772 3.75 5.625 3.75C6.12228 3.75 6.59919 3.94754 6.95083 4.29917C7.30246 4.65081 7.5 5.12772 7.5 5.625Z" fill="#3BCB86"/>
</svg>
